<?xml version="1.0" encoding="UTF-8"?>
<!-- Generator: Adobe Illustrator 12.0.1, SVG Export Plug-In . SVG Version: 6.00 Build 51448)  -->
<!DOCTYPE svg PUBLIC "-//W3C//DTD SVG 1.1//EN" "http://www.w3.org/Graphics/SVG/1.1/DTD/svg11.dtd">
<svg version="1.1" id="Ebene_1" xmlns="http://www.w3.org/2000/svg" xmlns:xlink="http://www.w3.org/1999/xlink" width="568.863" height="1080" viewBox="0 0 568.863 1080" overflow="visible" enable-background="new 0 0 568.863 1080" xml:space="preserve">
<path fill-rule="evenodd" clip-rule="evenodd" d="M385.547,0h87.545c1.043,0,1.91,0.861,1.91,1.913v6.214  c0,1.052-0.867,1.91-1.91,1.91h-87.545c-1.049,0-1.916-0.858-1.916-1.91V1.913C383.631,0.861,384.498,0,385.547,0z"/>
<path fill-rule="evenodd" clip-rule="evenodd" d="M0,157.705v-42.437c0-1.052,0.861-1.913,1.913-1.913h4.444  c1.052,0,1.913,0.861,1.913,1.913v42.437c0,1.052-0.861,1.913-1.913,1.913H1.913C0.861,159.618,0,158.757,0,157.705z"/>
<path fill-rule="evenodd" clip-rule="evenodd" d="M2.224,258.36L0,238.043v-40.078c0-1.052,0.861-1.913,1.913-1.913h4.444  c1.055,0,1.913,0.861,1.913,1.913v60.396c0,1.052-0.861,1.91-1.913,1.91H4.134C3.085,260.271,2.338,259.403,2.224,258.36z"/>
<path fill-rule="evenodd" clip-rule="evenodd" d="M2.224,320.098L0,340.412v40.081c0,1.049,0.861,1.91,1.913,1.91h4.444  c1.055,0,1.913-0.861,1.913-1.91v-60.396c0-1.052-0.861-1.913-1.913-1.913H4.134C3.085,318.185,2.338,319.052,2.224,320.098z"/>
<path fill-rule="evenodd" clip-rule="evenodd" d="M103.526,6.357h366.776c54.211,0,98.561,44.353,98.561,98.563v876.519  c0,54.211-44.35,98.561-98.561,98.561H103.526c-54.208,0-98.561-44.35-98.561-98.561V104.921  C4.966,50.71,49.318,6.357,103.526,6.357z"/>
<path fill-rule="evenodd" clip-rule="evenodd" d="M104.663,40.365h364.503c37.605,0,68.367,30.768,68.367,68.37v876.917  c0,37.605-30.762,68.373-68.367,68.373H104.663c-37.605,0-68.37-30.768-68.37-68.373V108.735  C36.293,71.133,67.058,40.365,104.663,40.365z"/>
<path fill-rule="evenodd" clip-rule="evenodd" fill="#FFFFFF" d="M286.805,930.152c28.418,0,51.463,23.045,51.463,51.463  s-23.045,51.457-51.463,51.457c-28.415,0-51.463-23.039-51.463-51.457S258.39,930.152,286.805,930.152z"/>
<path fill-rule="evenodd" clip-rule="evenodd" fill="#FFFFFF" d="M327.697,107.235h-81.782c-5.692,0-10.354,4.658-10.354,10.351l0,0  c0,5.698,4.661,10.356,10.354,10.356h81.782c5.695,0,10.348-4.658,10.348-10.356l0,0  C338.045,111.894,333.393,107.235,327.697,107.235z"/>
<path fill-rule="evenodd" clip-rule="evenodd" fill="#FFFFFF" d="M55.866,195.527h462.097c4.324,0,7.863,3.539,7.863,7.866v699.636  c0,4.324-3.539,7.863-7.863,7.863H55.866c-4.324,0-7.863-3.539-7.863-7.863V203.394C48.003,199.066,51.542,195.527,55.866,195.527z"/>
<path fill-rule="evenodd" clip-rule="evenodd" d="M387.451,421.655c-13.605-13.163-25.447-25.887-50.461-27.202  c-20.18-0.879-29.396,11.405-48.264,11.845c-17.552,0.439-16.236-13.603-52.655-9.653c-31.591,3.51-59.235,35.104-57.041,79.421  c2.194,47.827,35.54,114.085,66.694,114.085c21.938-0.445,27.205-10.969,45.199-10.969c22.371,0,27.639,13.16,45.188,10.523  c30.281-4.383,58.799-52.213,58.799-67.567c-16.67-8.777-33.346-23.695-35.537-48.706  C357.615,448.421,372.973,432.624,387.451,421.655z"/>
<path fill-rule="evenodd" clip-rule="evenodd" d="M282.583,397.96c-2.194-17.549,9.653-55.726,51.337-61.427  C338.748,365.93,314.613,399.715,282.583,397.96z"/>
<path fill-rule="evenodd" clip-rule="evenodd" d="M446.742,687.1c0.533-6.199,4.248-15.41,13.459-15.41  c9.92,0,12.223,9.744,12.223,15.41H446.742L446.742,687.1z M491.725,703.57c0.357-1.951,0.709-5.49,0.709-9.563  c0-18.955-8.502-38.256-30.99-38.256c-24.082,0-35.238,21.434-35.238,40.91c0,24.082,13.629,39.141,37.184,39.141  c9.387,0,18.064-1.594,25.148-4.957l-2.836-16.119c-5.842,2.303-11.684,3.369-19.125,3.369c-10.09,0-18.949-4.787-19.652-14.707  L491.725,703.57L491.725,703.57z M351.111,734.209h21.604v-44.098c0-2.303,0.182-4.43,0.709-6.023  c1.594-4.43,5.139-8.854,11.156-8.854c7.793,0,10.98,6.732,10.98,16.471v42.504h21.609v-45.164  c0-22.664-10.629-33.117-24.973-33.117c-11.689,0-18.598,7.441-21.428,12.398h-0.357l-1.061-10.629h-18.768  c0.176,6.914,0.527,14.883,0.527,24.445V734.209L351.111,734.209z M307.014,718.799c-9.035,0-14.168-9.738-14.168-22.846  c0-11.332,4.072-22.846,14.344-22.846c9.738,0,13.816,11.514,13.816,22.67c0,13.811-5.314,23.021-13.816,23.021H307.014  L307.014,718.799z M306.838,735.803c18.598,0,36.656-12.75,36.656-40.559c0-23.197-14.344-39.316-35.414-39.316  c-22.494,0-37.371,15.762-37.371,40.559c0,24.615,15.586,39.316,35.953,39.316H306.838L306.838,735.803z M195.621,734.209h21.604  v-45.34c0-1.77,0.179-3.896,0.709-5.133c1.594-4.43,5.136-8.502,10.802-8.502c8.147,0,11.159,6.908,11.159,16.822v42.152h21.782  v-44.631c0-23.197-10.626-33.65-24.439-33.65c-3.896,0-7.969,1.242-11.159,3.012c-3.539,1.945-6.372,4.605-8.675,7.969h-0.179  v-43.74h-21.604V734.209L195.621,734.209z M138.24,646.898c1.594-0.357,4.605-0.709,8.854-0.709c10.98,0,17.001,5.672,17.001,15.41  c0,10.623-7.084,16.998-18.595,16.998c-3.188,0-5.49-0.176-7.26-0.533V646.898L138.24,646.898z M116.634,734.209h21.606v-37.898  c1.948,0.527,4.605,0.703,7.438,0.703c12.75,0,23.906-3.715,31.169-11.156c5.842-5.842,8.678-14.52,8.678-24.973  c0-10.441-3.896-19.125-10.096-24.258c-6.375-5.848-15.938-8.678-29.396-8.678c-13.283,0-22.67,1.061-29.399,2.303V734.209  L116.634,734.209z M93.434,647.783c7.617,0,12.396-5.666,12.396-12.75c-0.176-7.26-4.778-12.574-12.217-12.574  s-12.22,5.314-12.22,12.574C81.393,642.117,86.174,647.783,93.434,647.783L93.434,647.783L93.434,647.783z M104.414,734.209v-76.512  H82.632v76.512H104.414z"/>
</svg>