<?xml version="1.0" encoding="UTF-8" standalone="no"?>
<!DOCTYPE svg PUBLIC "-//W3C//DTD SVG 1.1//EN" "http://www.w3.org/Graphics/SVG/1.1/DTD/svg11.dtd">
<svg width="100%" height="100%" viewBox="0 0 307 307" version="1.1" xmlns="http://www.w3.org/2000/svg" xmlns:xlink="http://www.w3.org/1999/xlink" xml:space="preserve" xmlns:serif="http://www.serif.com/" style="fill-rule:evenodd;clip-rule:evenodd;stroke-linejoin:round;stroke-miterlimit:2;">
    <g transform="matrix(1,0,0,1,-223.963,-124.65)">
        <g id="g30">
            <path id="path2" d="M496.445,209.248C485.639,200.602 473.288,194.581 459.857,191.339C452.138,189.487 444.419,188.715 436.545,188.406C430.678,188.252 424.812,188.252 418.946,188.252L335.889,188.252C330.023,188.252 324.156,188.252 318.29,188.406C310.417,188.715 302.698,189.487 294.978,191.339C281.547,194.581 269.196,200.602 258.39,209.248C236.622,226.693 223.963,253.092 223.963,280.88C223.963,308.823 236.622,335.068 258.39,352.513C269.196,361.158 281.547,367.179 294.978,370.421C302.697,372.274 310.417,373.045 318.29,373.354C324.157,373.508 330.024,373.508 335.889,373.508L418.946,373.508C424.813,373.508 430.679,373.508 436.545,373.354C444.419,373.045 452.138,372.273 459.857,370.421C473.288,367.179 485.639,361.158 496.445,352.513C518.213,335.068 530.873,308.669 530.873,280.88C530.873,252.937 518.213,226.693 496.445,209.248ZM455.997,305.736C451.829,308.515 447.352,310.213 442.412,310.985C437.472,311.757 432.686,311.602 427.746,311.602L327.089,311.602C322.149,311.602 317.364,311.756 312.423,310.985C307.483,310.213 303.006,308.515 298.838,305.736C290.655,300.024 285.716,290.761 285.716,280.88C285.716,270.846 290.656,261.582 298.838,256.024C303.007,253.246 307.483,251.547 312.423,250.776C317.364,250.003 322.15,250.158 327.089,250.158L427.746,250.158C432.686,250.158 437.472,250.003 442.412,250.776C447.352,251.547 451.829,253.246 455.997,256.024C464.18,261.736 469.12,271 469.12,280.88C469.12,290.915 464.18,300.178 455.997,305.736Z" style="fill-rule:nonzero;"/>
        </g>
    </g>
</svg>
