<svg xmlns="http://www.w3.org/2000/svg" version="1.0" width="108.315" height="108.315" id="svg7148"><path style="color:#000;visibility:visible;fill:#025;fill-opacity:1;fill-rule:nonzero;stroke:none;stroke-width:3px;marker:none;enable-background:accumulate;display:inline;overflow:visible" d="M52.625 1.625C23.571 1.625 0 25.196 0 54.25c0 29.055 23.57 52.594 52.625 52.594 5.587 0 10.98-.887 16.031-2.5v-26.25c-4.362 2.536-9.467 4-14.937 4-15.988 0-28.938-12.465-28.938-27.844 0-15.378 12.95-27.843 28.938-27.843 5.47 0 10.575 1.463 14.937 4V4.125a52.598 52.598 0 0 0-16.031-2.5z" id="path3002"/><path transform="matrix(.33075 0 0 .3217 9.599 9.111)" style="fill:#025" id="polygon9367" d="M179.959 78.103h118.5l-53 56.75h-65.5z"/><path transform="matrix(.33075 0 0 .3217 9.599 9.111)" style="fill:red" id="polygon9369" d="M179.959 203.103h118.5l-53-56.75h-65.5z"/></svg>