<svg version="1.1" id="Layer_1" xmlns="http://www.w3.org/2000/svg" x="0" y="0" width="100" height="59" xml:space="preserve"><path d="m97.901 18-.003.001C96.896 7.895 88.372 0 78 0a19.88 19.88 0 0 0-10.498 3H32.498A19.88 19.88 0 0 0 22 0C11.628 0 3.104 7.895 2.102 18.001L2.099 18C1.751 22.175 0 50.691 0 51a8 8 0 0 0 8 8c18.377 0 25.943-15.686 28.666-24h26.668C66.057 43.314 73.623 59 92 59a8 8 0 0 0 8-8c0-.309-1.751-28.825-2.099-33zM22 32c-6.629 0-12-5.373-12-12S15.371 8 22 8s12 5.373 12 12-5.371 12-12 12zm56 0c-6.629 0-12-5.373-12-12S71.371 8 78 8s12 5.373 12 12-5.371 12-12 12z"/><path d="M31 17h-6v-6h-6v6h-6v6h6v6h6v-6h6zM78 16a3.999 3.999 0 1 1-8 0 3.999 3.999 0 1 1 8 0zM86 24a3.999 3.999 0 1 1-8 0 3.999 3.999 0 1 1 8 0z"/></svg>